<?xml version="1.0" encoding="utf-8"?>
<!-- Generator: Adobe Illustrator 23.0.3, SVG Export Plug-In . SVG Version: 6.00 Build 0)  -->
<svg version="1.1" id="Layer_1" xmlns="http://www.w3.org/2000/svg" xmlns:xlink="http://www.w3.org/1999/xlink" x="0px" y="0px"
	 viewBox="0 0 123.95 178.89" style="enable-background:new 0 0 123.95 178.89;" xml:space="preserve">
<style type="text/css">
	.st0{opacity:0.36;}
	.st1{fill:#3C53A4;stroke:#000000;stroke-width:5;stroke-miterlimit:10;}
	.st2{fill:#8B8CC4;}
	.st3{opacity:0.3;}
	.st4{opacity:0.48;fill:#FFFFFF;}
</style>
<g>
	<ellipse class="st0" cx="62.43" cy="171.41" rx="36.99" ry="7.48"/>
	<path class="st1" d="M113.21,64.11c4.73,10.02,7.27,19.52,8.01,28.33c2.15,25.52-10.86,45.14-29.73,54.05
		c-25.38,11.99-58.99,3.49-77.43-35.56C4.17,90,0.65,64.55,3.41,43.58C5.8,25.41,12.91,10.62,24.7,5.05
		C50.08-6.93,94.76,25.05,113.21,64.11z"/>
	<path class="st2" d="M113.21,64.11c4.73,10.02,7.27,19.52,8.01,28.33c-3.42,17.19-14.42,30.25-28.85,37.07
		C66.99,141.5,33.38,133,14.94,93.94C7.61,78.42,3.78,60.4,3.41,43.58C5.8,25.41,12.91,10.62,24.7,5.05
		C50.08-6.93,94.76,25.05,113.21,64.11z"/>
	<circle class="st3" cx="25.97" cy="56.51" r="6.19"/>
	<circle cx="36.91" cy="106.64" r="2.08"/>
	<circle cx="70.21" cy="121.13" r="7.78"/>
	
		<ellipse transform="matrix(0.8339 -0.5519 0.5519 0.8339 -9.9007 32.671)" class="st4" cx="49.33" cy="32.78" rx="18.21" ry="28.38"/>
	<circle cx="72.02" cy="100.74" r="2.08"/>
</g>
</svg>
